# xmcd
#
# Track frame offsets: 
#        150
#        12859
#        25902
#        38469
#        49129
#        58664
#        70204
#        76647
#        90322
#        102437
#        112209
#        123209
#        135294
#        147347
#        159734
#        171369
#        183269
#        192341
#        205139
#        220912
#
# Disc length: 3108 seconds
#
# Revision: 0
# Processed by: cddbd v1.5.2PL0 Copyright (c) Steve Scherf et al.
# Submitted via: ExactAudioCopyFreeDBPlugin 1.0
#
DISCID=0f0c2214
DTITLE=Hank Williams - Big Box of Hank Williams [D5]
DYEAR=2012
DGENRE=Country
TTITLE0=Move it on Over
TTITLE1=I Can't Get You Off My Mind
TTITLE2=Lovesick Blues III
TTITLE3=I Can't Help It (If I'm Still in Love With You) [Live]
TTITLE4=Pan American I
TTITLE5=My Bucket's Got a Hole in It
TTITLE6=Fool About You
TTITLE7=Beyond the Sunset
TTITLE8=Long Gone Lonesome Blues
TTITLE9=I Want to Live and Love
TTITLE10=I Can't Help It (If I'm Still in Love With You)
TTITLE11=I'll Be a Bachelor Till I Die
TTITLE12=Take These Chains From My Heart
TTITLE13=Your Cheatin' Heart
TTITLE14=Your Cheatin' Heart [Demo]
TTITLE15=You Win Again
TTITLE16=Singing Waterfall
TTITLE17=Hey Good Lookin' (Live)
TTITLE18=Window Shopping (Live)
TTITLE19=Half as Much
EXTD=
EXTT0=
EXTT1=
EXTT2=
EXTT3=
EXTT4=
EXTT5=
EXTT6=
EXTT7=
EXTT8=
EXTT9=
EXTT10=
EXTT11=
EXTT12=
EXTT13=
EXTT14=
EXTT15=
EXTT16=
EXTT17=
EXTT18=
EXTT19=
PLAYORDER=
